<svg xmlns="http://www.w3.org/2000/svg" fill="none" viewBox="0 0 103 20">
    <path fill="#ffffff"
        d="M0 3.159c0-.405.141-.745.424-1.021a1.438 1.438 0 0 1 1.045-.414c.415 0 .763.138 1.046.414.282.276.423.616.423 1.02 0 .405-.14.745-.423 1.021a1.438 1.438 0 0 1-1.046.414c-.414 0-.763-.138-1.045-.414A1.37 1.37 0 0 1 0 3.16zm.17 16.496V6.91h2.599v12.745h-2.6zm6.484 0V.36h2.458l7.106 8.11 7.12-8.11h2.458v19.296h-2.74V4.593l-6.838 7.78-6.824-7.78v15.062h-2.74zm25.33-9.627c0 .984.188 1.921.565 2.813a7.207 7.207 0 0 0 1.624 2.373 7.237 7.237 0 0 0 2.416 1.6 7.86 7.86 0 0 0 2.91.552 7.82 7.82 0 0 0 2.91-.538 7.353 7.353 0 0 0 2.445-1.614 7.21 7.21 0 0 0 1.624-2.373 7.01 7.01 0 0 0 .58-2.813c0-.984-.19-1.913-.566-2.787a7.554 7.554 0 0 0-1.667-2.413 7.203 7.203 0 0 0-2.43-1.614 7.516 7.516 0 0 0-2.896-.566c-.98 0-1.93.189-2.853.566a7.977 7.977 0 0 0-2.473 1.614 6.878 6.878 0 0 0-1.624 2.358 7.294 7.294 0 0 0-.565 2.842zm-3.01-.097c0-1.287.269-2.538.806-3.752a9.825 9.825 0 0 1 2.288-3.213A10.562 10.562 0 0 1 35.488.8a10.93 10.93 0 0 1 4.011-.745c1.432 0 2.788.253 4.069.759a10.131 10.131 0 0 1 3.405 2.152c1.026.974 1.798 2.06 2.316 3.255.518 1.195.777 2.492.777 3.89a9.28 9.28 0 0 1-.805 3.793 9.637 9.637 0 0 1-2.26 3.186 10.77 10.77 0 0 1-3.447 2.179c-1.263.487-2.614.731-4.055.731-1.403 0-2.75-.253-4.04-.759a10.462 10.462 0 0 1-3.39-2.151c-1.018-.966-1.79-2.055-2.318-3.27a9.805 9.805 0 0 1-.777-3.889zm29.738 9.862L50.01.36h2.952l6.16 13.765L65.408.36h2.91l-8.872 19.434h-.734zm11.23-.138V.36h2.826v19.296h-2.825zm7.15 0V.36h11.88v2.455h-9.084v5.848h8.83v2.497h-8.83v6.013h9.38v2.483H77.092zm14.72-1.503V14.51c.894 1.003 1.747 1.725 2.557 2.166a5.43 5.43 0 0 0 2.613.662c.98 0 1.752-.22 2.317-.662.565-.45.848-1.058.848-1.82 0-.626-.194-1.173-.58-1.642-.376-.478-1.285-1.163-2.726-2.055-2.232-1.407-3.635-2.497-4.21-3.27-.565-.772-.848-1.691-.848-2.758 0-1.499.542-2.726 1.625-3.683C94.5.483 95.904 0 97.618 0c.763 0 1.511.11 2.246.331a9.382 9.382 0 0 1 2.246.993v3.131c-.866-.68-1.667-1.172-2.401-1.476a5.59 5.59 0 0 0-2.204-.469c-.886 0-1.61.216-2.176.649-.556.423-.833.97-.833 1.641 0 .956 1.163 2.143 3.49 3.559l.423.248c1.893 1.15 3.131 2.165 3.715 3.048.584.874.876 1.959.876 3.255 0 1.472-.546 2.69-1.639 3.656-1.092.956-2.49 1.434-4.195 1.434-1.065 0-2.025-.147-2.882-.441-.857-.295-1.681-.764-2.472-1.407z" />
</svg>